Simulation
nRows=40
nColumns=15
endheader
time  TH_x TH_y TH_z SC_y  SC_z  SC_x  AC_y  AC_z  AC_x  GH_y  GH_z  GH_yy  EL_x  PS_y
0.0  0.000000  0.000000  0.000000  -40.97484877243665  6.293857566463187  5.290427962726946  38.561111567464195  -1.5097946383857082  -7.773770249283825  109.72294945874646  7.18059289799048  -78.30211773836899  22.564111770434597  120.000000
0.05745  0.000000  0.000000  0.000000  -38.93333308863158  4.896365472626018  4.057393002241624  40.05060856677123  -2.1877493130717727  -6.1953064327109875  57.62301058799051  6.083194095311595  -30.072660442045578  22.012547628573547  120.000000
0.1149  0.000000  0.000000  0.000000  -36.96589657531862  3.387125758215998  2.6586962167923036  41.6713636035369  -2.989714940921979  -4.501933216915808  19.665177292669146  9.372154303111751  4.091946042064116  21.630683609995785  120.000000
0.17235  0.000000  0.000000  0.000000  -35.25997834335705  1.6849986905914316  1.162816590053071  43.43574761812117  -4.019602457651178  -2.6196146171651713  2.8544159340968167  14.480480019822888  17.24886930882862  21.500243189175304  120.000000
0.2298  0.000000  0.000000  0.000000  -33.940237370021265  -0.2695280923783867  -0.3416509209777656  45.408217803947146  -5.395192526816097  -0.5101930538888755  -6.336099825212026  20.441761653562327  23.00596229778577  21.64281005077905  120.000000
0.28725  0.000000  0.000000  0.000000  -33.03634561895555  -2.4770767640780993  -1.781205781211839  47.54648797207994  -7.154882266962735  1.7934623066736748  -12.501144560326814  27.041171676400797  25.971630481874424  21.99105909790946  120.000000
0.3447  0.000000  0.000000  0.000000  -32.5129728365264  -4.806442392028179  -3.088502194295222  49.66879646398441  -9.226014209898016  4.214599441768781  -17.10930190801074  34.037871760646176  27.566833381623912  22.43284910096155  120.000000
0.40215  0.000000  0.000000  0.000000  -32.26616128372811  -7.0333786407898  -4.225523137208965  51.563471653676736  -11.385943655091415  6.647548431614715  -20.603517924912083  41.04071211726415  28.187819494884067  22.841571254830612  120.000000
0.4596  0.000000  0.000000  0.000000  -32.198627069303235  -8.871320138745435  -5.217260942200873  53.11184916902709  -13.27237552892928  8.966163617698085  -23.02988617968943  47.59948333851962  27.880617551627694  23.134700171860764  120.000000
0.51705  0.000000  0.000000  0.000000  -32.250199925908674  -10.076506112634094  -6.11047750656569  54.31569293040898  -14.501329453912227  11.011150279857398  -24.392868921711166  53.37981530472076  26.66714408818911  23.26993399406722  120.000000
0.5745  0.000000  0.000000  0.000000  -32.390306573502876  -10.543976079913907  -6.929769921835747  55.27208475393154  -14.822159270325336  12.678653661770058  -24.87051151985746  58.26694862929525  24.704500553498733  23.218742099949445  120.000000
0.63195  0.000000  0.000000  0.000000  -32.6474325103372  -10.282407629645407  -7.709679499905288  56.15335883180542  -14.145085389735577  14.045457543885204  -24.84821703412882  62.3250922882317  22.356566454871302  22.98933655625356  120.000000
0.6894  0.000000  0.000000  0.000000  -33.104686970046494  -9.379536240514959  -8.476229706720536  57.166529337007226  -12.484514031487212  15.321829805570857  -24.80400584981991  65.67469863257043  20.125715205459624  22.625911858621855  120.000000
0.74685  0.000000  0.000000  0.000000  -33.88600242907268  -7.929814010591243  -9.250817428706394  58.42703354893139  -9.900774723951395  16.679925459669068  -25.002932479673635  68.32690239292916  18.30857930889205  22.17961376371828  120.000000
0.8043  0.000000  0.000000  0.000000  -35.0587388935146  -6.0214738914567745  -10.038394274506057  59.87666561652771  -6.478639271298457  18.148955540248476  -25.402812684350575  70.1683018747758  16.869032654019534  21.690379626155227  120.000000
0.86175  0.000000  0.000000  0.000000  -36.53164365345672  -3.7876136681155024  -10.796588617087508  61.34472794662604  -2.3567327501644546  19.65093280132304  -25.841740682363042  71.10912091735618  15.61685958076506  21.19146340186214  120.000000
0.9192  0.000000  0.000000  0.000000  -38.12126633602348  -1.414111502442286  -11.457042795493544  62.61569636966599  2.243894546350645  21.075961017422166  -26.116232211466993  71.20524792358896  14.28627439484532  20.70058855848535  120.000000
0.97665  0.000000  0.000000  0.000000  -39.66163175998659  0.8776496833710328  -11.972862932775113  63.534787575705046  7.00627773389188  22.348609157642787  -26.060131872998177  70.77751795960135  12.662989807980072  20.221731120770517  120.000000
1.0341  0.000000  0.000000  0.000000  -41.05610175285125  2.9313780541814745  -12.288359395872693  64.06269156493256  11.596710317695283  23.453479957406095  -25.65102241450343  70.20467179423213  10.74463285544845  19.7634951284333  120.000000
1.09155  0.000000  0.000000  0.000000  -42.282479169884965  4.733652073174036  -12.290126240144085  64.2341466797074  15.76584907095898  24.41054482714418  -24.99272601580815  69.62511288277054  8.722490050972793  19.334770164222835  120.000000
1.149  0.000000  0.000000  0.000000  -43.36788997687524  6.321999065771822  -11.875104579062118  64.12872635498768  19.32754938199725  25.24952946971524  -24.202769880798122  69.0833239890513  6.826766743478554  18.93645555219391  120.000000
1.20645  0.000000  0.000000  0.000000  -44.36464000198634  7.720679020934276  -11.00498082511713  63.85422066509203  22.15925469087896  25.983521330182555  -23.361505612928536  68.63428225115791  5.220970650174622  18.56392967104084  120.000000
1.2639  0.000000  0.000000  0.000000  -45.320549049430696  8.943664703177626  -9.709136552225647  63.51897451035757  24.240458756950154  26.601899392754834  -22.529235962223396  68.28795321147176  3.9916777175790217  18.212539639587167  120.000000
1.32135  0.000000  0.000000  0.000000  -46.253870779435395  9.978888643882659  -8.100584418608747  63.2091558817227  25.63720875746133  27.08689558926952  -21.74368907360313  68.03247271117894  3.1350693837990216  17.884519188408433  120.000000
1.3788  0.000000  0.000000  0.000000  -47.13754415311049  10.803271361903853  -6.367026246120983  62.98098616639633  26.46502483104626  27.419226578517954  -21.031356378863475  67.84685732774294  2.5769428760876845  17.587941689780898  120.000000
1.43625  0.000000  0.000000  0.000000  -47.90576034700925  11.39682589082236  -4.728214041035051  62.85456284643269  26.853440491718946  27.59070382004472  -20.417072685633425  67.71027969060248  2.2086850177637554  17.33407499360303  120.000000
1.4937  0.000000  0.000000  0.000000  -48.477088879891795  11.75494930253646  -3.397493446936108  62.82897828681948  26.921150347294358  27.605086454057115  -19.928655344752904  67.60681539296904  1.9244505919212045  17.13249641266603  120.000000
1.55115  0.000000  0.000000  0.000000  -48.78198293375206  11.886913035334056  -2.5491151708164024  62.89655946105776  26.755643564300065  27.480942569803236  -19.59459581779075  67.52718160265239  1.6480136763124718  16.990597954645466  120.000000
1.6086  0.000000  0.000000  0.000000  -48.783082497709685  11.806842842146223  -2.297008523501977  63.05441628918908  26.405783916255793  27.24868132217964  -19.44018521486302  67.4680249283277  1.3428830032592203  16.912358803202814  120.000000
1.66605  0.000000  0.000000  0.000000  -48.484867449577514  11.527530687881919  -2.682879035273718  63.30568894899504  25.881903739757913  26.95270457896993  -19.479181734608556  67.429878286547  1.0102118696969784  16.897825624112574  120.000000
1.7235  0.000000  0.000000  0.000000  -47.93128094513965  11.056484986522507  -3.6713175790329675  63.65488981170437  25.162398579685195  26.649845844850688  -19.70863064406568  67.41512271227629  0.6794264963061759  16.939892226009984  120.000000
1.78095  0.000000  0.000000  0.000000  -47.192660182093114  10.399357883262297  -5.1546842800113275  64.09843704409602  24.20100788852852  26.403842099950108  -20.108225449781855  67.42668504755284  0.3970916889213508  17.0216679880632  120.000000
1.8384  0.000000  0.000000  0.000000  -46.3460586544072  9.563961353830104  -6.969128817612577  64.61754674275228  22.934247446518047  26.271030535177346  -20.64608438589777  67.4675716895786  0.21411696111981127  17.117658389093798  120.000000
1.89585  0.000000  0.000000  0.000000  -45.44981329112836  8.5584527228207  -8.919927177961874  65.17216249072028  21.29169615019923  26.283042706035857  -21.28847781535747  67.5403164870736  0.17294608719931331  17.199819637003568  120.000000
1.9533  0.000000  0.000000  0.000000  -44.52613959108926  7.38447482882983  -10.810946987115132  65.70447066238992  19.20882628091879  26.430044469519018  -22.004268694586216  67.64559753046065  0.2911695917272645  17.246901063787764  120.000000
2.01075  0.000000  0.000000  0.000000  -43.557031988698505  6.025684322600913  -12.46803191151112  66.14190750461113  16.644005922652312  26.65166722101264  -22.771638756419353  67.7811060149353  0.5497371808569513  17.249753204396214  120.000000
2.0682  0.000000  0.000000  0.000000  -42.49792530989566  4.445587562332321  -13.754620557715906  66.40549191901934  13.592395084416879  26.8430816363095  -23.57636722544609  67.93967293254342  0.8874697034655885  17.210013685318593  120.000000
2.1256500000000003  0.000000  0.000000  0.000000  -41.29863856017982  2.6058871842142217  -14.574480629379376  66.4214086658456  10.09296293320161  26.874369910890948  -24.402812198365513  68.10023066945199  1.2129723559303753  17.129123526594427  120.000000
2.1831  0.000000  0.000000  0.000000  -39.93544513999122  0.48735266818878176  -14.875788504601694  66.13995681472316  6.217873902619909  26.627589552208633  -25.19712329938983  68.25687741607629  1.4190272957453154  17.002365483875682  120.000000
2.24055  0.000000  0.000000  0.000000  -38.45602711706595  -1.8546059718708243  -14.642839143899113  65.54175570386151  2.076606610768508  26.028137929399435  -25.859262492275505  68.35745334923672  1.4330149968021018  16.81643708105809  120.000000
